<?xml version="1.0" standalone="no"?>
<!DOCTYPE svg PUBLIC "-//W3C//DTD SVG 20010904//EN"
 "http://www.w3.org/TR/2001/REC-SVG-20010904/DTD/svg10.dtd">
<svg version="1.0" xmlns="http://www.w3.org/2000/svg"
 width="225.000000pt" height="225.000000pt" viewBox="0 0 225.000000 225.000000"
 preserveAspectRatio="xMidYMid meet">
<metadata>
Created by potrace 1.11, written by Peter Selinger 2001-2013
</metadata>
<g transform="translate(0.000000,225.000000) scale(0.100000,-0.100000)"
fill="#000000" stroke="none">
<path d="M0 1125 l0 -1125 1125 0 1125 0 0 1125 0 1125 -1125 0 -1125 0 0
-1125z m1132 996 c-4 -4 -9 -16 -9 -28 -1 -18 4 -23 23 -23 14 0 22 -4 19 -10
-16 -25 -55 -4 -59 32 -1 4 -10 14 -21 22 -18 13 -17 14 18 13 20 0 33 -3 29
-6z m-337 -51 c-3 -5 -12 -10 -18 -10 -7 0 -6 4 3 10 19 12 23 12 15 0z m302
-6 c-3 -3 -12 -4 -19 -1 -8 3 -5 6 6 6 11 1 17 -2 13 -5z m-287 -25 c0 -4 -7
-9 -15 -13 -8 -3 -20 -17 -25 -31 -6 -15 -15 -23 -20 -20 -26 16 -63 15 -77
-2 -13 -16 -14 -16 -9 -1 3 10 -2 21 -11 26 -12 7 -8 10 17 15 17 4 29 11 26
15 -3 5 5 7 18 5 13 -3 27 0 30 6 8 12 66 12 66 0z m820 -19 c-32 -24 -40 -16
-9 9 13 11 26 17 29 14 3 -2 -6 -13 -20 -23z m-1027 -44 c4 -10 1 -13 -8 -9
-8 3 -12 9 -9 14 7 12 11 11 17 -5z m-103 -70 c0 -2 -7 -7 -16 -10 -8 -3 -12
-2 -9 4 6 10 25 14 25 6z m1022 -878 c-7 -7 -12 -8 -12 -2 0 14 12 26 19 19 2
-3 -1 -11 -7 -17z m397 -130 c-8 -14 -14 -18 -17 -10 -4 13 17 46 25 38 3 -2
-1 -15 -8 -28z m57 17 c7 -16 -12 -45 -29 -45 -5 0 -3 8 6 18 13 14 14 21 5
30 -9 9 -9 12 0 12 7 0 15 -7 18 -15z m-716 -305 c0 -5 -4 -10 -10 -10 -5 0
-10 5 -10 10 0 6 5 10 10 10 6 0 10 -4 10 -10z"/>
</g>
</svg>
